<svg xmlns="http://www.w3.org/2000/svg" xmlns:xlink="http://www.w3.org/1999/xlink" id="Layer_1" x="0" y="0" enable-background="new 0 0 451.3 110.4" version="1.1" viewBox="0 0 451.3 110.4" xml:space="preserve"><style type="text/css">.st0{fill:#ec1e1e}</style><g><polygon points="0 0 0 110.4 145.2 110.4 145.2 78.8 47.3 78.8 47.3 71 145.2 71 145.2 39.4 47.3 39.4 47.3 31.5 145.2 31.5 145.2 0" class="st0"/><polygon points="153.1 0 153.1 110.4 200.4 110.4 200.4 71 298.2 71 298.2 39.4 200.4 39.4 200.4 31.5 298.2 31.5 298.2 0" class="st0"/><polygon points="306.1 0 306.1 110.4 353.4 110.4 353.4 71 451.3 71 451.3 39.4 353.4 39.4 353.4 31.5 451.3 31.5 451.3 0" class="st0"/></g></svg>